<?xml version="1.0" standalone="no"?>
<!DOCTYPE svg PUBLIC "-//W3C//DTD SVG 20010904//EN"
 "http://www.w3.org/TR/2001/REC-SVG-20010904/DTD/svg10.dtd">
<svg version="1.0" xmlns="http://www.w3.org/2000/svg"
 width="288px" height="254px" viewBox="0 0 288.000000 254.000000"
 preserveAspectRatio="xMidYMid meet">

<g transform="translate(0.000000,254.000000) scale(0.100000,-0.100000)"
fill="#000000" stroke="none">
<path d="M1395 2528 c-50 -27 -71 -99 -45 -149 14 -25 62 -49 99 -49 42 0 90
45 97 90 12 81 -81 147 -151 108z"/>
<path d="M1020 2476 c-87 -31 -294 -139 -330 -173 -10 -10 52 -53 93 -64 39
-10 125 -8 227 6 l35 5 -32 -12 c-48 -19 -48 -24 -6 -51 33 -22 45 -24 91 -18
55 8 72 -2 25 -14 l-28 -7 30 -15 c17 -9 38 -22 47 -30 12 -11 28 -13 53 -9
26 5 35 4 33 -6 -2 -10 18 -13 85 -13 53 -1 87 3 87 10 0 26 -41 75 -62 75
-41 1 -106 37 -122 69 -11 21 -16 58 -16 121 0 88 -1 93 -29 121 -37 37 -89
38 -181 5z"/>
<path d="M1681 2472 c-30 -30 -31 -33 -31 -122 0 -63 -5 -100 -16 -121 -16
-32 -81 -68 -122 -69 -21 0 -62 -49 -62 -75 0 -7 34 -11 88 -10 66 0 86 3 84
13 -2 10 7 11 33 6 25 -4 41 -2 53 9 9 8 31 21 47 30 l30 15 -27 7 c-48 12
-31 22 25 14 54 -7 91 4 116 35 11 13 10 17 -10 24 -52 19 -52 22 -4 14 94
-14 208 -8 252 12 45 20 62 45 41 58 -176 110 -325 178 -409 185 -54 5 -60 4
-88 -25z"/>
<path d="M1370 2313 c0 -19 42 -43 75 -43 27 0 75 33 75 51 0 3 -34 5 -75 4
-51 0 -75 -4 -75 -12z"/>
<path d="M616 2273 c-80 -27 -295 -76 -456 -102 l-165 -27 31 -31 c72 -73 251
-82 474 -24 119 30 276 83 320 107 l25 13 -30 1 c-52 0 -108 21 -135 49 -24
27 -27 27 -64 14z"/>
<path d="M2203 2263 c-21 -28 -82 -52 -133 -53 -29 0 -32 -2 -17 -11 54 -32
324 -111 451 -134 170 -29 268 -15 342 49 l38 32 -90 13 c-131 18 -370 68
-478 100 l-94 28 -19 -24z"/>
<path d="M1413 2254 c-20 -9 -15 -76 8 -114 l21 -34 20 37 c11 23 18 53 16 75
-3 31 -7 37 -28 39 -14 1 -31 -1 -37 -3z"/>
<path d="M835 2185 c-84 -40 -322 -114 -439 -137 -141 -27 -141 -27 -130 -38
37 -37 258 -52 374 -25 109 26 277 99 345 150 18 15 18 16 -15 45 -42 35 -69
36 -135 5z"/>
<path d="M1910 2180 c-33 -29 -33 -30 -15 -45 37 -27 199 -104 280 -131 70
-24 96 -28 205 -28 97 -1 137 3 178 17 57 20 68 37 25 37 -77 0 -398 92 -530
151 -80 36 -99 36 -143 -1z"/>
<path d="M900 2069 c-92 -47 -165 -77 -228 -93 -50 -12 -95 -25 -98 -28 -3 -3
15 -14 40 -23 69 -26 210 -17 296 19 76 32 250 128 250 138 0 12 -67 48 -96
52 -21 3 -66 -15 -164 -65z"/>
<path d="M1785 2125 c-35 -16 -70 -43 -64 -49 13 -12 197 -109 246 -129 77
-32 110 -39 196 -39 72 1 158 26 141 41 -5 4 -36 14 -69 21 -79 16 -188 60
-304 121 -52 27 -99 49 -105 49 -6 -1 -24 -7 -41 -15z"/>
<path d="M1105 2029 c-38 -22 -108 -59 -155 -81 l-85 -41 48 -9 49 -9 42 45
c61 66 140 100 244 104 87 4 115 22 33 22 -27 0 -61 2 -77 5 -21 3 -48 -7 -99
-36z"/>
<path d="M1608 2063 c-33 -2 -58 -9 -58 -15 0 -7 14 -8 38 -5 51 9 165 -17
219 -49 24 -14 56 -43 71 -64 29 -41 34 -43 97 -31 l40 7 -134 67 c-74 38
-143 75 -155 83 -11 7 -30 13 -41 12 -11 -1 -46 -3 -77 -5z"/>
<path d="M1366 2047 c-17 -12 -15 -15 17 -40 20 -15 38 -27 41 -27 3 0 6 18 6
40 0 35 -3 40 -23 40 -13 0 -31 -6 -41 -13z"/>
<path d="M1450 2022 c0 -21 3 -41 6 -45 4 -3 24 8 46 25 l39 32 -23 13 c-13 7
-33 12 -45 13 -20 0 -23 -5 -23 -38z"/>
<path d="M1180 2016 c-143 -41 -203 -110 -203 -236 -1 -77 23 -130 79 -180 78
-68 157 -89 404 -109 84 -6 128 -14 163 -31 109 -51 100 -157 -16 -192 l-39
-12 48 -23 c27 -13 53 -28 58 -33 16 -16 37 -12 74 16 75 58 91 168 38 258
-53 91 -154 132 -354 147 -158 11 -247 35 -292 81 -25 25 -30 37 -30 78 0 63
15 95 57 121 30 19 38 20 81 8 56 -14 111 -6 143 20 26 21 19 39 -31 76 -39
29 -104 33 -180 11z m130 -20 c0 -3 -4 -8 -10 -11 -5 -3 -10 -1 -10 4 0 6 5
11 10 11 6 0 10 -2 10 -4z"/>
<path d="M1545 2019 c-37 -22 -65 -52 -65 -71 0 -30 64 -52 125 -43 27 4 62 7
78 7 76 2 127 -132 75 -197 -22 -28 -109 -75 -140 -75 -10 0 -18 -4 -18 -10 0
-5 5 -10 11 -10 6 0 42 -16 81 -35 l71 -34 43 31 c24 17 56 49 71 71 25 36 28
49 28 122 0 73 -3 86 -30 131 -43 69 -130 113 -235 120 -48 3 -82 1 -95 -7z"/>
<path d="M1421 1926 c-17 -39 -21 -69 -21 -162 l0 -114 40 0 40 0 0 119 c0 96
-4 127 -19 162 l-20 43 -20 -48z"/>
<path d="M1113 1493 c-31 -46 -43 -81 -43 -129 0 -62 20 -104 71 -148 58 -50
144 -74 295 -84 138 -9 166 -21 191 -80 20 -47 8 -80 -34 -101 -18 -9 -33 -19
-33 -22 0 -3 23 -16 50 -29 l50 -24 30 29 c41 39 55 94 40 154 -29 120 -104
168 -278 181 -127 10 -176 21 -223 53 -62 42 -48 128 26 164 l35 17 -63 16
c-34 9 -69 20 -78 24 -12 5 -22 -1 -36 -21z"/>
<path d="M1402 1368 l3 -103 35 0 35 0 3 103 3 102 -41 0 -41 0 3 -102z"/>
<path d="M1176 1120 c-9 -17 -20 -55 -23 -84 -13 -123 77 -196 242 -197 94 0
138 -13 169 -50 44 -52 29 -111 -36 -145 l-31 -16 44 -20 44 -19 37 39 c62 67
61 154 -3 227 -38 43 -92 62 -196 70 -125 8 -173 33 -173 87 0 35 15 67 42 89
20 15 19 17 -30 32 -66 22 -65 22 -86 -13z"/>
<path d="M1410 1025 l0 -95 30 0 30 0 0 95 0 95 -30 0 -30 0 0 -95z"/>
<path d="M1234 804 c-21 -50 -14 -122 15 -163 31 -43 87 -70 184 -86 86 -15
117 -36 117 -77 0 -30 -28 -76 -50 -83 -27 -8 -25 -19 4 -33 47 -21 96 42 96
124 0 40 -5 51 -38 84 -30 30 -48 40 -87 45 -118 16 -175 53 -175 114 0 20 7
46 15 57 20 26 19 31 -9 38 -13 3 -31 9 -40 12 -12 5 -20 -4 -32 -32z"/>
<path d="M1412 738 c3 -87 4 -93 25 -96 28 -4 35 20 31 113 -3 68 -4 70 -31
73 l-28 3 3 -93z"/>
<path d="M1289 521 c-25 -85 23 -156 125 -186 72 -21 101 -54 101 -112 0 -35
-5 -49 -24 -64 -40 -33 -44 -25 -37 66 7 83 6 85 -15 85 -21 0 -22 -2 -15 -85
8 -92 1 -103 -34 -57 -17 21 -21 36 -17 70 2 24 12 51 21 61 16 17 16 19 0 25
-27 10 -46 -17 -51 -71 -5 -59 12 -93 54 -113 31 -14 33 -18 33 -67 0 -29 5
-53 10 -53 6 0 10 24 10 54 0 51 1 54 30 59 39 8 65 50 65 107 0 66 -24 95
-110 135 -40 18 -78 42 -84 53 -16 30 -13 73 6 94 19 22 16 26 -24 34 -30 6
-32 4 -44 -35z"/>
<path d="M1420 465 c0 -68 2 -75 20 -75 18 0 20 7 20 75 0 68 -2 75 -20 75
-18 0 -20 -7 -20 -75z"/>
</g>
</svg>
